<svg width="154" height="283" viewBox="0 0 154 283" fill="none" xmlns="http://www.w3.org/2000/svg">
<rect width="154" height="283" fill="#E5E5E5"/>
<rect x="110" width="22" height="22" fill="#FBF30F"/>
<rect x="110" y="22" width="22" height="22" fill="#381F1B"/>
<rect x="110" y="44" width="22" height="22" fill="#311B17"/>
<rect x="132" y="44" width="22" height="22" fill="#E8E9DD"/>
<rect x="132" y="66" width="22" height="22" fill="#E8E9DD"/>
<rect x="110" y="66" width="22" height="22" fill="#E8E9DD"/>
<rect x="110" y="88" width="22" height="22" fill="#E8E9DD"/>
<rect x="132" y="88" width="22" height="22" fill="#CECDB9"/>
<rect x="132" y="110" width="22" height="22" fill="#A7A695"/>
<rect x="110" y="110" width="22" height="22" fill="#CECDB9"/>
<rect x="66" y="88" width="22" height="22" fill="#A7A695"/>
<rect x="88" y="88" width="22" height="22" fill="#CAC9B5"/>
<rect x="88" y="110" width="22" height="22" fill="#A7A695"/>
<rect x="66" y="110" width="22" height="22" fill="#A7A695"/>
<rect x="110" y="131" width="22" height="22" fill="#919082"/>
<rect x="88" y="131" width="22" height="22" fill="#8A897C"/>
<rect x="66" y="131" width="22" height="22" fill="#828174"/>
<rect x="44" y="131" width="22" height="22" fill="#A7A695"/>
<rect x="88" y="153" width="22" height="22" fill="#D0D1C6"/>
<rect x="110" y="153" width="22" height="22" fill="#E8E9DD"/>
<rect x="110" y="175" width="22" height="22" fill="#919082"/>
<rect x="132" y="175" width="22" height="22" fill="#DCDCD1"/>
<rect x="132" y="197" width="22" height="22" fill="#D0D0C6"/>
<rect x="88" y="175" width="22" height="22" fill="#CECDB9"/>
<rect x="88" y="239" width="22" height="22" fill="#CCCBB7"/>
<rect x="88" y="261" width="22" height="22" fill="#CECDB9"/>
<rect x="88" y="196" width="22" height="22" fill="#CECDB9"/>
<rect x="88" y="218" width="22" height="22" fill="#CECDB9"/>
<rect x="66" y="153" width="22" height="22" fill="#CECDB9"/>
<rect x="66" y="175" width="22" height="22" fill="#C9C8B4"/>
<rect x="66" y="197" width="22" height="22" fill="#C4C3B0"/>
<rect x="66" y="219" width="22" height="22" fill="#BFBEAC"/>
<rect x="44" y="218" width="22" height="22" fill="#CECDB9"/>
<rect x="44" y="239" width="22" height="22" fill="#CECDB9"/>
<rect x="23" y="239" width="22" height="22" fill="#A7A695"/>
<rect x="23" y="261" width="22" height="22" fill="#A7A695"/>
<rect x="44" y="153" width="22" height="22" fill="#BCBBA9"/>
<rect x="22" y="153" width="22" height="22" fill="#A7A695"/>
<rect y="175" width="22" height="22" fill="#A7A695"/>
<rect y="197" width="22" height="22" fill="#A7A695"/>
<rect x="22" y="175" width="22" height="22" fill="#919082"/>
<rect x="44" y="197" width="22" height="22" fill="#B3B2A0"/>
<rect x="44" y="175" width="22" height="22" fill="#B7B6A5"/>
<rect x="66" y="44" width="22" height="22" fill="#CECDB9"/>
<rect x="88" y="66" width="22" height="22" fill="#E8E9DD"/>
<rect x="66" y="66" width="22" height="22" fill="#CAC9B5"/>
</svg>
